<?xml version="1.0" encoding="utf-8"?>
<!-- Generator: Adobe Illustrator 25.0.0, SVG Export Plug-In . SVG Version: 6.00 Build 0)  -->
<svg version="1.1" xmlns="http://www.w3.org/2000/svg" xmlns:xlink="http://www.w3.org/1999/xlink" x="0px" y="0px"
	 width="240" height="81" viewBox="0 0 1254.13 412.87" style="enable-background:new 0 0 1254.13 412.87;" xml:space="preserve">
<style type="text/css">
	.st0{fill:#FFFFFF;}
</style>
<g id="Background_xA0_Image_1_">
</g>
<g id="Urdu_xA0_Image_1_">
	<g>
		<path class="st0" d="M1055.19,47.29c0,8.25,6.62,14.97,14.76,14.98c8.33,0.01,15.06-6.6,15.06-14.8
			c0.01-8.32-6.61-15.03-14.82-15.04C1061.89,32.43,1055.2,39.06,1055.19,47.29z M1105.62,62.27c8.21,0,14.91-6.66,14.91-14.83
			c0-8.31-6.62-15-14.85-15.01c-8.29,0-14.97,6.64-14.97,14.89C1090.7,55.6,1097.36,62.27,1105.62,62.27z M1201.76,62.27
			c8.25,0,14.98-6.62,14.99-14.75c0.01-8.34-6.59-15.07-14.78-15.08c-8.33-0.01-15.04,6.6-15.05,14.81
			C1186.92,55.56,1193.54,62.27,1201.76,62.27z M1252.26,47.41c0-8.24-6.63-14.97-14.77-14.97c-8.33-0.01-15.06,6.6-15.06,14.8
			c-0.01,8.32,6.61,15.03,14.83,15.03C1245.57,62.27,1252.26,55.64,1252.26,47.41z"/>
		<path class="st0" d="M603.08,148.15c-8.46-11.17-9.57-23.32-5.59-36.57c-2.23,0.83-4.2,1.5-6.12,2.3
			c-1.81,0.75-3.53,1.7-5.33,2.46c-5.11,2.15-11.34,0.42-14.17-5.01c-2.64-5.06-0.83-11.7,4.09-14.47
			c6.53-3.68,13.51-6.32,20.61-8.64c8.14-2.66,16.47-4.47,24.98-5.36c7.45-0.78,14.91-0.8,22.38-0.07
			c10.26,0.99,20.11,3.47,29.38,8.03c15.74,7.74,27.01,19.9,34.79,35.46c3.26,6.52,5.75,13.33,7.45,20.42
			c0.29,1.19,0.04,1.46,1.18,1.45c6.4-0.05,13.57-0.03,19.97-0.03c65.06,0.04,130.12,0.09,195.18,0.12
			c21.87,0.01,43.75,0.01,65.62,0c3.12,0,6.25,0.07,9.35-0.17c4.17-0.32,7.84-1.86,10.41-5.37c1.01-1.38,1.51-2.94,1.49-4.7
			c-0.11-13.96-0.2-27.92-0.25-41.87c-0.02-6.46,3.95-12.03,9.82-13.92c6.34-2.05,13.03,0.09,16.86,5.39
			c1.84,2.55,2.66,5.44,2.65,8.56c-0.02,10.12-0.12,20.24-0.06,30.36c0.02,3.7-0.16,7.44,0.8,11.09c1.7,6.41,5.52,10.6,12.21,11.82
			c2.26,0.41,4.54,0.4,6.78-0.16c3.68-0.92,5.87-4,5.86-8.45c-0.02-8.96-0.13-17.92-0.21-26.88c-0.05-5.91-0.22-11.83-0.11-17.73
			c0.09-5.02,1.99-9.3,6.27-12.2c8.74-5.94,21.48-0.97,22.77,10.1c0.09,0.79,0.15,1.59,0.17,2.39c0.18,12,0.31,23.99,0.55,35.99
			c0.07,3.58,0.79,7.07,2.71,10.18c2.63,4.26,6.53,6.46,11.45,6.88c1.5,0.13,3.05,0.15,4.53-0.09c4-0.67,6.46-3.41,6.57-7.53
			c0.17-6.67,0.18-13.35,0.14-20.03c-0.05-8.24-0.48-16.48-0.26-24.71c0.14-5.23,1.86-10.12,6.62-13.18
			c4.93-3.17,10.15-3.38,15.26-0.63c4.84,2.61,7.36,6.85,7.38,12.44c0.03,9.48-0.01,18.96,0.09,28.44c0.04,3.26,0.05,6.6,0.72,9.77
			c1.47,6.94,5.46,11.9,12.52,13.91c0.98,0.28,2.05,0.32,3.08,0.32c12.6,0.02,25.19,0.03,37.79-0.01c1.59,0,3.21-0.13,4.75-0.51
			c4.37-1.07,6.94-4.43,6.93-9.02c-0.03-9.36-0.13-18.72-0.21-28.08c-0.04-4.56-0.26-9.13-0.07-13.68
			c0.39-9.64,6.66-15.91,15.88-15.35c7.56,0.46,13.26,6.65,13.3,14.21c0.07,16.28,0.16,32.56,0.28,48.83
			c0.04,5.27-0.8,10.34-3.26,15.06c-3.82,7.32-10.09,11.44-17.94,13.15c-3.6,0.79-7.35,1.18-11.03,1.21
			c-16.07,0.13-32.15,0.01-48.23,0.08c-7.54,0.03-13.85-2.66-19.15-7.92c-0.65-0.65-1.3-1.3-1.95-1.94
			c-0.02-0.02-0.08-0.01-0.24-0.02c-6.92,8.72-16.63,11.35-27.18,11.46c-10.68,0.11-20.15-3.13-27.13-11.74
			c-0.21,0.09-0.35,0.1-0.42,0.18c-4.99,6.19-11.61,9.46-19.3,10.83c-7.88,1.41-15.6,0.89-23.08-2.04
			c-4.46-1.75-8.36-4.34-11.35-8.17c-0.17-0.21-0.37-0.4-0.6-0.64c-1.33,1.26-2.59,2.53-3.93,3.7c-4.83,4.22-10.49,6.28-16.89,6.28
			c-145.68,0-291.36,0-437.05,0c-28.91,0-57.82-0.04-86.74,0.02c-9.42,0.02-16.72-3.78-22.14-11.4c-0.16-0.23-0.33-0.46-0.5-0.67
			c-0.04-0.05-0.14-0.07-0.47-0.21c-0.09,0.15-0.19,0.41-0.37,0.62c-5.27,6.43-12.14,10.08-20.29,11.12
			c-4.06,0.52-8.21,0.51-12.32,0.51c-42.03,0.03-84.06,0.01-126.09-0.01c-5.03,0-9.72-1.21-13.9-4.13
			c-0.19-0.13-0.41-0.23-0.75-0.41c-0.32,1.27-0.59,2.46-0.91,3.64c-4.27,15.84-13.43,27.99-27.5,36.44
			c-6.57,3.95-13.4,7.28-20.99,8.77c-3.61,0.71-7.24,1.32-10.89,0.12c-5.88-1.92-9.59-7.19-9.6-13.63
			c-0.01-5.99,3.72-11.19,9.45-13.08c4.21-1.39,8.43-2.7,12.24-5.1c5.92-3.73,11.21-8.11,15.04-14.04c3.27-5.05,5-10.56,4.94-16.63
			c-0.16-14.76-0.26-29.52-0.38-44.27c-0.05-5.56-0.14-11.12-0.12-16.68c0.02-6.98,5.59-12.98,12.57-13.76
			c5.92-0.66,10.79,1.17,14.45,5.91c1.77,2.29,2.53,4.96,2.55,7.84c0.02,3.28-0.02,6.56-0.01,9.84c0.02,8.03,0.05,16.06,0.1,24.1
			c0.04,5.1,1.25,9.83,4.77,13.71c3.27,3.6,7.24,5.57,12.25,5.53c11.19-0.1,22.38-0.03,33.58-0.03c28.91,0,57.81,0,86.72,0
			c3.07,0,6.05-0.43,8.81-1.86c4.01-2.09,6.12-5.28,6.05-9.92c-0.16-9.44-0.2-18.88-0.3-28.31c-0.04-3.96-0.14-7.91-0.16-11.87
			c-0.04-8.3,4.71-13.76,12.95-14.97c7.21-1.06,14.33,3.68,16,10.7c0.26,1.08,0.37,2.21,0.38,3.32c0.06,9.12,0.01,18.24,0.13,27.36
			c0.05,3.83-0.01,7.73,0.71,11.45c1.35,6.94,5.39,11.83,12.43,13.8c0.98,0.27,2.06,0.3,3.09,0.3c13.27-0.03,26.55-0.09,39.82-0.12
			c13.28-0.02,26.55-0.02,39.83,0c7.79,0.01,15.59,0.08,23.38,0.12C601.92,148.25,602.42,148.19,603.08,148.15z M648.59,125.11
			c-0.12-1.43-0.15-2.87-0.37-4.29c-0.68-4.43-2.4-8.36-5.94-11.28c-2.9-2.39-6.24-3.58-10.01-2.94c-4.75,0.81-7.89,3.79-10.03,7.94
			c-2.14,4.15-2.55,8.63-2.12,13.18c0.35,3.75,1.58,7.23,3.96,10.24c6.6,8.35,18.26,6.91,22.57-2.8
			C648.05,131.96,648.57,128.59,648.59,125.11z M690.25,148.12c-0.08-0.43-0.1-0.74-0.2-1.03c-1.39-3.73-2.57-7.56-4.24-11.16
			c-2.77-5.98-6.38-11.44-11.49-15.75c-0.34-0.28-0.72-0.52-1.24-0.9c1.65,10.3,0.7,19.88-4.81,28.84
			C675.6,148.12,682.87,148.12,690.25,148.12z"/>
		<path class="st0" d="M1055.19,47.29c0-8.23,6.7-14.86,15-14.86c8.22,0,14.83,6.71,14.82,15.04c-0.01,8.2-6.73,14.81-15.06,14.8
			C1061.82,62.26,1055.19,55.54,1055.19,47.29z"/>
		<path class="st0" d="M1105.62,62.27c-8.26,0-14.91-6.67-14.91-14.95c0-8.25,6.68-14.89,14.97-14.89c8.23,0,14.86,6.7,14.85,15.01
			C1120.53,55.61,1113.83,62.27,1105.62,62.27z"/>
		<path class="st0" d="M1201.76,62.27c-8.22,0-14.85-6.7-14.84-15.02c0.01-8.21,6.72-14.82,15.05-14.81
			c8.19,0.01,14.79,6.74,14.78,15.08C1216.74,55.65,1210.01,62.27,1201.76,62.27z"/>
		<path class="st0" d="M1252.26,47.41c0,8.23-6.7,14.86-15,14.86c-8.22,0-14.83-6.71-14.83-15.03c0.01-8.2,6.73-14.81,15.06-14.8
			C1245.63,32.44,1252.26,39.17,1252.26,47.41z"/>
		<path class="st0" d="M1087.8,31.49c-8.26,0-14.91-6.67-14.91-14.95c0-8.25,6.68-14.89,14.97-14.89c8.23,0,14.86,6.7,14.85,15.01
			C1102.71,24.82,1096.01,31.49,1087.8,31.49z"/>
		<path class="st0" d="M340.4,209.57c0-8.23,6.7-14.86,15-14.86c8.22,0,14.83,6.71,14.82,15.04c-0.01,8.2-6.73,14.81-15.06,14.8
			C347.02,224.53,340.4,217.81,340.4,209.57z"/>
		<path class="st0" d="M392.99,224.54c-8.26,0-14.91-6.67-14.91-14.95c0-8.25,6.68-14.89,14.97-14.89c8.23,0,14.86,6.7,14.85,15.01
			C407.9,217.88,401.2,224.54,392.99,224.54z"/>
	</g>
</g>
<g id="English_xA0_Image_1_">
	<g>
		<path class="st0" d="M98.57,411.65c-2.04-0.34-1.66-0.36-2.43-0.54c-7.07-1.64-11.88-5.7-13.62-12.91
			c-0.35-1.45-0.3-3.01-0.31-4.53c-0.02-25.43-0.01-50.86-0.01-76.29c0-29.75,0-59.5,0-89.25c0-3.85-0.07-3.79-3.75-4.23
			c-8.59-1.03-16.93-3.15-25.06-6.14c-11.97-4.4-22.82-10.76-32.66-18.83c-6.01-4.93-11.45-10.46-16.31-16.54
			c-3.23-4.05-3.9-8.61-1.84-13.29c2.14-4.88,6.19-7.36,11.47-7.82c5.52-0.48,9.9,1.56,13.5,5.78
			c13.12,15.41,29.7,24.97,49.54,28.87c7.17,1.41,14.44,1.95,21.7,1.37c25.18-2.02,45.9-12.74,61.87-32.38
			c8.36-10.28,13.93-21.97,16.75-34.91c1.79-8.22,2.77-16.54,1.83-24.97c-0.29-2.62-0.59-5.23-0.96-7.84
			c-1.04-7.32,2.67-13.05,9.82-15.14c0.98-0.29,0.68-0.26,2.97-0.62c0.57,0.01,0.75-0.06,1.37-0.01c0.22,0.04,0.41,0.06,0.58,0.09
			c1.5,0.3,1.42,0.33,2.3,0.58c5.83,1.65,9.41,5.53,10.25,11.42c0.84,5.91,1.56,11.92,1.45,17.87c-0.62,33.22-12.83,61.42-37.36,84
			c-13.15,12.11-28.51,20.43-45.71,25.33c-1.53,0.44-3.08,0.87-4.64,1.18c-1.26,0.26-1.73,1.02-1.75,2.19
			c-0.02,1.04-0.03,2.08-0.03,3.12c0,54.21,0,108.41,0,162.62c0,1.68-0.09,3.36-0.05,5.04c0.2,7.65-5.7,14.64-13.96,16.23
			c-0.61,0.17-0.1,0.05-1.05,0.28c-0.26,0.06-0.46,0.07-1.13,0.2c-0.56,0.08-0.98,0.1-1.41,0.1
			C99.51,411.69,99.49,411.75,98.57,411.65z"/>
		<path class="st0" d="M1252.19,267.77c-0.09,0.72-0.13,1.02-0.22,1.54c-1.25,7.97-5.9,12.96-13.75,14.62
			c-4.15,0.88-8.23,1.98-12.12,3.7c-12.99,5.76-21.27,15.77-25.95,28.96c-2.26,6.36-3.61,12.93-3.91,19.67
			c-0.23,5.03-0.41,10.06-0.43,15.09c-0.05,13.28-0.13,26.56,0.05,39.83c0.13,9.52-8.12,16.38-16.17,16.62
			c-3.18,0.1-6.24-0.31-9.08-1.76c-6.2-3.16-9.44-8.28-9.46-15.22c-0.07-19.84-0.02-39.67-0.02-59.51c0-20.8-0.05-41.59,0.03-62.39
			c0.03-7.59,3.5-13.22,10.56-16.25c10.22-4.38,21.64,1.76,23.78,12.04c0.29,1.39,0.3,2.86,0.31,4.29c0.03,4-0.02,8-0.01,12
			c0,0.75,0.13,1.49,0.21,2.42c1.29-0.49,1.41-1.45,1.75-2.18c2.93-6.18,6.53-11.92,11.07-17.04c4.62-5.21,9.9-9.53,16.45-12.13
			c4.79-1.9,9.73-2.64,14.79-1.35c6.37,1.62,11.07,7.16,11.87,13.62c0.08,0.68,0.21,1.38,0.26,2.04
			C1252.19,266.87,1252.19,267.29,1252.19,267.77z"/>
		<path class="st0" d="M488.3,275.52c0.63-0.77,1.28-1.52,1.87-2.31c4.65-6.18,9.98-11.66,16.55-15.84
			c6.72-4.28,14.02-6.84,21.95-7.73c8.27-0.92,16.45-0.56,24.48,1.62c16.69,4.53,27.78,15.17,33.68,31.33
			c2.35,6.42,3.58,13.08,3.84,19.92c0.08,2,0.12,4,0.12,6c0.01,26.8,0.02,53.6-0.02,80.4c0,2.22-0.08,4.52-0.66,6.64
			c-2.37,8.68-10.54,12.93-18.15,12.09c-9.05-1.01-15.47-7.84-15.56-16.34c-0.11-10.72-0.04-21.44-0.04-32.16
			c0-13.76,0.06-27.52-0.04-41.28c-0.05-6.1-0.9-12.1-3.18-17.83C548.77,289,540.7,282.73,529.01,281
			c-5.53-0.82-11.01-0.65-16.39,0.84c-12.17,3.36-19.62,11.5-23.2,23.38c-1.49,4.93-1.98,10.01-1.97,15.16
			c0.02,23.44,0.03,46.88-0.01,70.32c-0.01,6.25-2.78,11.16-8.08,14.38c-10.47,6.37-22.93,0.64-25.75-9.7
			c-0.48-1.75-0.78-3.62-0.78-5.43c-0.04-56.64-0.04-113.28-0.02-169.91c0-9.14,6.11-17.24,16.84-17.68
			c11.14-0.45,17.79,8.42,17.82,16.29c0.04,9.68,0.01,19.36,0,29.04c0,8.4-0.02,16.8,0,25.2c0,0.82,0.16,1.64,0.24,2.46
			C487.9,275.4,488.1,275.46,488.3,275.52z"/>
		<path class="st0" d="M712.69,276c1.31-1.14,1.15-1.05,2.65-2.61c4.7-6.25,10.06-11.81,16.69-16.03c6.79-4.32,14.19-6.89,22.2-7.74
			c10.75-1.14,21.22-0.16,31.26,4.05c10.11,4.24,17.74,11.28,23.02,20.85c4.23,7.67,6.53,15.95,7.2,24.66
			c0.3,3.82,0.44,7.66,0.45,11.49c0.04,26.56,0.01,53.11,0.04,79.67c0.01,6.29-2.32,11.4-7.45,15.04
			c-9.54,6.78-24.16,2.24-26.81-10.74c-0.29-1.4-0.4-2.85-0.4-4.28c-0.02-24.56,0-49.11-0.03-73.67
			c-0.01-6.71-1.25-13.19-4.19-19.27c-4.49-9.27-11.99-14.55-22.02-16.28c-6.97-1.2-13.87-0.79-20.54,1.72
			c-8.89,3.34-14.99,9.59-18.6,18.28c-2.06,4.98-3.19,10.2-3.21,15.63c-0.08,24.23-0.18,48.47-0.23,72.7
			c-0.01,3.66-0.45,7.15-2.31,10.39c-3.66,6.38-10.89,9.68-18.44,8.34c-6.59-1.17-12.33-6.92-13.55-13.66
			c-0.21-1.17-0.19-2.39-0.19-3.59c0-54.63,0.01-109.26,0.02-163.89c0-2.08,0.14-4.17-0.01-6.24c-0.5-7.37,4.85-14.22,12.25-16.33
			c7.8-2.23,16.15,1.15,19.95,7.31c1.96,3.17,2.56,6.64,2.49,10.32c-0.09,5.27-0.02,10.54-0.02,15.82c0,3.12,0.02,6.24-0.01,9.36
			c-0.06,8.71-0.14,17.43-0.19,26.14C712.73,274.08,712.73,274.75,712.69,276z"/>
		<path class="st0" d="M868.46,341.5c0.21,1.47,0.3,2.41,0.49,3.34c1.7,8.38,5,16,10.71,22.46c6.5,7.35,14.67,11.78,24.27,13.45
			c16.9,2.92,32-1.31,45.33-11.97c3.24-2.59,6.74-4.31,10.91-4.28c6.63,0.04,12.38,5.51,13.01,12.11c0.54,5.74-1.49,10.2-5.98,13.84
			c-7.38,5.99-15.26,11.08-24.23,14.35c-6.49,2.36-13.15,4.02-20.05,4.44c-5.34,0.33-10.72,0.72-16.04,0.37
			c-33.34-2.17-60.58-22.78-69.77-55.31c-2.72-9.63-3.75-19.47-3.23-29.41c0.93-17.6,6.27-33.72,17.24-47.7
			c11.71-14.91,26.93-24.06,45.71-27.04c12.6-1.99,25.02-1.15,37.13,2.97c16.31,5.55,28.49,16.12,37.18,30.87
			c5.18,8.79,8.38,18.3,9.97,28.33c0.65,4.09,1.06,8.27,1,12.41c-0.12,7.13-3.26,12.6-10.08,15.48c-2.46,1.04-5.08,1.31-7.74,1.31
			c-30.71-0.01-61.42-0.01-92.12-0.01C871.07,341.5,869.97,341.5,868.46,341.5z M868.17,318.58c1.22,0.1,2.14,0.24,3.06,0.24
			c24.7,0.01,49.4,0.01,74.1,0.01c0.4,0,0.8,0.02,1.2-0.02c1.57-0.13,1.88-0.37,1.6-1.94c-0.62-3.45-1.15-6.95-2.15-10.3
			c-2.36-7.96-6.28-15.06-12.7-20.5c-8.39-7.12-18.17-9.64-29.02-8.46c-11.82,1.28-20.79,7.2-27.46,16.85
			c-4.01,5.8-6.43,12.29-7.86,19.16C868.64,315.16,868.46,316.73,868.17,318.58z"/>
		<path class="st0" d="M1027.68,341.47c0.15,0.81,0.24,1.5,0.34,2.01c1.62,8.81,4.89,16.86,10.85,23.67
			c6.46,7.39,14.63,11.86,24.21,13.55c16.79,2.96,31.83-1.18,45.2-11.65c0.76-0.59,1.49-1.21,2.27-1.77
			c7.2-5.11,19.47-2.51,21.46,8.92c0.93,5.33-0.76,9.84-4.71,13.38c-10.14,9.09-21.84,15.22-35.18,18.17
			c-8.65,1.92-17.43,2.45-26.22,1.84c-15.83-1.1-30.33-6.08-43.01-15.82c-13.2-10.14-21.81-23.39-26.41-39.32
			c-2.8-9.69-3.82-19.62-3.28-29.65c0.97-18.04,6.55-34.49,18.02-48.63c11.59-14.3,26.51-23.15,44.76-26.01
			c15.87-2.49,31.24-0.73,45.76,6.45c12.25,6.06,21.57,15.29,28.52,26.99c5.29,8.91,8.54,18.56,10.2,28.75
			c0.59,3.62,0.91,7.31,1,10.97c0.18,7.28-2.44,13.13-9.28,16.51c-2.55,1.26-5.33,1.66-8.15,1.66c-22.87,0.01-45.74,0-68.61,0
			c-8.16,0-16.31,0-24.47,0.01C1030.02,341.51,1028.76,341.42,1027.68,341.47z M1027.51,318.61c1.42,0.09,2.5,0.22,3.58,0.22
			c24.3,0.01,48.6,0.01,72.9,0.01c0.48,0,0.96,0.01,1.44-0.01c2.05-0.08,2.33-0.27,1.99-2.23c-0.59-3.37-1.13-6.79-2.11-10.06
			c-2.38-7.95-6.3-15.05-12.72-20.49c-8.39-7.12-18.19-9.59-29.03-8.43c-10.23,1.09-18.47,5.79-24.99,13.62
			c-5.39,6.48-8.48,14.04-10.25,22.19C1027.97,315.04,1027.8,316.69,1027.51,318.61z"/>
		<path class="st0" d="M264.06,386.56c-0.46,0.39-1.62,1.5-2.02,1.95c-10.1,11.34-22.76,17.98-37.71,20.05
			c-13.29,1.84-26.34,0.75-38.68-5.02c-14.02-6.55-23.21-17.16-25.89-32.6c-1.91-11-0.96-21.84,4.21-32.01
			c4.82-9.47,12.53-15.82,22.06-20.13c8.1-3.66,16.64-5.67,25.47-6.2c6.45-0.39,12.95-0.64,19.4-0.36
			c10.24,0.45,20.3,2.26,30.12,5.29c0.9,0.28,2.47,0.59,3.53,0.89c-0.05-0.67-0.09-1.24-0.08-1.74c0.07-6.27-0.46-12.45-3.04-18.29
			c-3.37-7.62-9.23-12.49-16.89-15.39c-4.6-1.74-9.4-2.62-14.28-2.85c-13.23-0.61-26.18,0.93-38.54,5.95
			c-8.64,3.51-17.66-1.78-19.81-9.05c-2.07-7,1.48-15.01,8.25-17.71c9.3-3.7,18.92-6.28,28.84-7.77c9.37-1.41,18.79-1.75,28.21-1.29
			c10.43,0.52,20.62,2.43,30.12,7.07c13.79,6.73,22.67,17.64,27.15,32.22c2.34,7.61,3.35,15.45,3.37,23.4
			c0.05,25.91-0.02,51.83,0.04,77.74c0.02,9.1-5.68,16.81-16.37,17.4c-8.75,0.48-15.66-5.47-17.06-12.28
			c-0.35-1.7-0.24-3.49-0.32-5.24c-0.05-1.01-0.01-2.03-0.04-3.04C264.12,387.25,264.06,386.89,264.06,386.56z M230.32,333.82
			c-0.4,0-0.8,0.01-1.2,0c-6.52-0.13-12.9,0.71-19.06,2.93c-4.27,1.53-8.14,3.74-11.26,7.07c-4.37,4.67-6.18,10.27-6.11,16.64
			c0.06,5.07,1.39,9.6,4.55,13.57c3.52,4.42,8.23,7.03,13.54,8.59c5.48,1.62,11.09,2.02,16.81,1.56c8.27-0.66,16.06-2.76,22.98-7.42
			c7.93-5.34,13.14-12.56,14.1-22.3c0.36-3.64,0.31-7.33,0.36-11c0.05-3.52,0.01-3.54-3.42-4.68
			C251.46,335.44,241.03,333.74,230.32,333.82z"/>
		<path class="st0" d="M373.6,249.65c17.29,0.13,33.46,4.65,48.65,12.76c6.55,3.5,9.02,9.67,7.29,16.64
			c-2.14,8.62-11.99,12.73-20.18,8.78c-4.38-2.12-8.81-4.17-13.32-5.99c-6.93-2.8-14.17-4.48-21.64-4.92
			c-4.82-0.28-9.58,0.3-14.1,2.18c-3.48,1.45-6.44,3.58-8.22,7.01c-2.93,5.63-2.17,12.03,3.07,16.47c3.22,2.73,6.9,4.69,10.8,6.13
			c6.97,2.56,14.01,4.94,21.07,7.26c8.74,2.87,17.41,5.88,25.38,10.59c6.71,3.96,12.53,8.86,16.44,15.74
			c2.73,4.82,4.15,10.02,4.37,15.54c0.26,6.43-0.24,12.76-2.24,18.94c-3.49,10.81-10.35,18.79-20.17,24.32
			c-7.06,3.97-14.68,6.25-22.7,7.18c-3.64,0.43-7.32,0.89-10.98,0.87c-19.79-0.12-38.18-5.3-55.11-15.59
			c-1.71-1.04-3.41-2.09-5.1-3.16c-5.01-3.2-7.28-9.36-5.65-15.31c1.57-5.74,6.73-9.91,12.53-10.24c3.66-0.21,6.9,0.74,9.96,2.75
			c8.69,5.71,18.03,9.97,28.17,12.37c6.1,1.45,12.29,2.14,18.54,1.74c4.82-0.31,9.48-1.3,13.7-3.86c5.78-3.5,8.48-9.71,7.14-16.46
			c-0.58-2.93-2.31-5.23-4.57-7.14c-3.16-2.67-6.8-4.55-10.66-5.88c-6.94-2.4-13.94-4.66-20.97-6.78
			c-8.43-2.54-16.79-5.2-24.56-9.45c-5.24-2.87-9.95-6.39-13.77-11.03c-5.07-6.15-7.52-13.28-7.93-21.17
			c-0.35-6.77,0.26-13.41,2.71-19.8c4.55-11.88,13.08-19.91,24.49-25.03C354.8,251.18,364.03,249.51,373.6,249.65z"/>
		<path class="st0" d="M654.92,230.32c0.18,7.79-0.66,15.48-2.92,22.95c-4.8,15.84-15.15,26.13-31.05,30.79
			c-3.03,0.89-6.12,1.11-9.25,0.86c-3.43-0.27-5.63-2.12-6.54-5.38c-0.89-3.23,0.17-6.37,3-8.16c1.33-0.84,2.85-1.42,4.35-1.95
			c3.42-1.2,6.65-2.72,9.54-4.92c5.43-4.14,8.56-9.58,9.26-16.4c0.11-1.03,0.29-2.06,0.32-3.09c0.04-1.9-0.18-2.13-1.91-2.82
			c-1.55-0.62-3.17-1.17-4.6-2.01c-6.54-3.84-10.34-9.36-10.22-17.2c0.04-2.64,0.01-5.25,0.76-7.84c2.02-6.97,7.9-11.97,15.09-13.03
			c2.91-0.43,5.73-0.34,8.55,0.29c5.2,1.16,9.1,4.16,11.81,8.7c2.43,4.06,3.56,8.53,3.79,13.22
			C655,226.32,654.92,228.32,654.92,230.32z"/>
		<path class="st0" d="M87.45,157.03c-8.43-0.49-14.64-6.31-14.54-14.8c0.11-8.78,6.6-14.45,14.57-14.42
			c8.4,0.03,14.64,6.19,14.54,14.7C101.91,151.28,95.43,156.59,87.45,157.03z"/>
		<path class="st0" d="M135.54,127.31c0.29,6.27-4.66,14.46-14.43,14.53c-9.65,0.06-14.66-8.05-14.64-14.62
			c0.02-6.3,4.76-14.47,14.5-14.53C130.64,112.63,135.86,120.75,135.54,127.31z"/>
	</g>
</g>
</svg>
